<?xml version="1.0" encoding="utf-8"?>
<!-- Generator: Adobe Illustrator 26.1.0, SVG Export Plug-In . SVG Version: 6.00 Build 0)  -->
<svg version="1.1" id="Layer_1" xmlns:xodm="http://www.corel.com/coreldraw/odm/2003"
	 xmlns="http://www.w3.org/2000/svg" xmlns:xlink="http://www.w3.org/1999/xlink" x="0px" y="0px" viewBox="0 0 1462.77 498"
	 style="enable-background:new 0 0 1462.77 498;" xml:space="preserve">
<style type="text/css">
	.st0{fill:#D2AD7B;stroke:#D2AD7B;stroke-width:0.567;stroke-miterlimit:65.0559;}
	.st1{fill:#2B2A29;}
	.st2{fill:#DEC19B;}
</style>
<g id="Layer_x0020_1">
	<path class="st0" d="M34.55,206.32l-23.96,44.11l8.86,51.03l0.73-0.4c2.97-12.26,5.93-24.53,8.9-36.79v0.02l4.66-19.26l0.11-0.47
		l79.82,43.66l0.41-0.68l-0.41-0.06L34.55,206.32L34.55,206.32z M33.37,243.26l-0.02,0.78l-2.68,11.06l-10.77,44.5l-8.67-49.06
		l23.08-42.41L33.37,243.26L33.37,243.26z M34.93,207.66l76.26,78.22L33.96,243.9l0.5-18.5L34.93,207.66L34.93,207.66z"/>
	<path class="st0" d="M197.64,486.46l-68.01-51.51c22.8-20.25,45.6-40.5,68.4-60.76v112.32L197.64,486.46L197.64,486.46z
		 M130.6,434.91l66.92,50.69V375.47L130.6,434.91L130.6,434.91z"/>
	<path class="st0" d="M129.49,434.97L38.38,392.2c7.73,12.59,16.72,24.22,26.77,34.71c10.23,10.67,21.57,20.14,33.8,28.21
		L129.49,434.97L129.49,434.97z M37.72,391.22l93.01,43.66l-31.78,20.97l-0.17-0.11c-12.34-8.12-23.77-17.66-34.08-28.41
		c-10.22-10.66-19.35-22.51-27.17-35.34c-0.18-0.3-0.37-0.61-0.55-0.91L37.72,391.22L37.72,391.22z"/>
	<path class="st0" d="M130.3,434.68l67.73,51.31v0.53l-0.21,0c-17.86-0.3-35.13-3.16-51.51-8.25c-16.9-5.25-32.86-12.88-47.52-22.53
		l-0.39-0.25c10.57-6.98,21.14-13.96,31.72-20.93L130.3,434.68L130.3,434.68z M196.89,485.89L130.1,435.3l-30.58,20.18
		c14.51,9.49,30.28,17.01,46.98,22.2C162.53,482.67,179.43,485.51,196.89,485.89z"/>
	<path class="st0" d="M113.88,288.03l-0.2,49.77l82.87,34.47L113.88,288.03L113.88,288.03z M198.03,373.42
		c-53.42,5.95-106.85,11.91-160.27,17.87l-0.78-0.21l0.82-1.12l75.23-102.44l0.61-0.29l0.09-0.22l0.11,0.12l0.04-0.02l0,0.06
		l0.19,0.2l83.95,85.91L198.03,373.42L198.03,373.42z M113.07,337.85l0.2-49.62L38.54,390l74.28-51.97L113.07,337.85L113.07,337.85z
		 M196.61,372.96l-83.2-34.61L39.1,390.52L196.61,372.96L196.61,372.96z"/>
	<path class="st0" d="M113.18,287.66l-93.73,13.8c4.66-19.28,9.34-38.55,13.99-57.83c6.71,3.62,13.41,7.24,20.11,10.86
		c6.7,3.62,13.41,7.25,20.11,10.87c6.7,3.62,13.4,7.25,20.11,10.88l18.57,10.29v0.69l-78.49-42.68l-13.6,56.18l92.26-13.58v0.07
		h0.66L113.18,287.66L113.18,287.66z"/>
	<path class="st0" d="M197.91,21.38l-29.75,9.11l29.87-19.24v10.1C198.03,21.34,197.91,21.38,197.91,21.38z M172.2,28.61l25.32-7.75
		V12.3L172.2,28.61L172.2,28.61z"/>
	<path class="st0" d="M144.45,68.41l-35.79,15.67l86.72-6.75L144.45,68.41L144.45,68.41z M117.03,138.25l80.02-60.44l-91.01,7.07
		l38.12-35.01l53.87,27.34v35.55c-27.18,8.76-54.06,17.39-81.23,26.15v-0.43h-0.05L117.03,138.25z M197.52,78.22l-78.68,59.42
		l78.68-25.37C197.52,112.28,197.52,78.22,197.52,78.22z M144.72,67.84c17.05,2.97,34.09,5.97,51.14,8.95l-51.33-26.05L144.72,67.84
		L144.72,67.84z M144.11,67.89l0-0.11l-0.19-16.85l-35.47,32.58L144.11,67.89L144.11,67.89z"/>
	<path class="st0" d="M82.23,129.24l-16.75,13.47l49.88-4.37c-9.39-2.57-18.78-5.17-28.17-7.75l-4.77-1.31L82.23,129.24
		L82.23,129.24z M128.27,178.75l67.93,27.01l-78.71-66.63l-1.19,34.86C120.3,175.58,124.28,177.16,128.27,178.75L128.27,178.75z
		 M115.9,168.12c0.32-9.65,0.63-19.28,0.96-28.93l-78.12,65.47l0.79-0.31l1.23-0.49l1.23-0.49l1.23-0.49l1.23-0.49l1.23-0.49
		l1.23-0.49l1.23-0.49l1.23-0.49l65.37-26.05l0.94-0.37l0.01-0.16l0.12-3.43l0.02-0.57l0.02-0.57l0.02-0.57L115.9,168.12
		L115.9,168.12z M117.71,138.56c26.77,22.65,53.56,45.29,80.33,67.95v0.64l-0.27-0.11l-160.66-1.09l0,0l-0.05,0l-0.78-0.01l0.7-0.61
		c26.03-22.66,52.89-44.3,79.35-66.46l-51.47,4.51l-1.06,0.08l0,0l21.83-31.34c10.53,8.65,21.06,17.35,31.59,26.01l0.33-0.27
		l-0.01,0.4l0.18,0.05v0.23L117.71,138.56L117.71,138.56z M38.64,205.35l157.56,1.07l-66.97-26.63L116,174.53l-0.1,0.04
		L38.64,205.35L38.64,205.35z M86,113.23l-3.48,15.46c11.13,3.03,22.26,6.09,33.39,9.13L86,113.23L86,113.23z M65.99,141.52
		l15.9-12.79l2.24-9.97l1.05-4.65L65.99,141.52L65.99,141.52z"/>
	<path class="st0" d="M197.95,249.73l-84.89,37.94c0.26-0.24-0.48,0.14-0.22-0.11c28.4-26.97,56.79-53.9,85.19-80.87v42.99
		L197.95,249.73z M115.09,286.28l82.43-37.02v-41.28L115.09,286.28L115.09,286.28z"/>
	<path class="st0" d="M361.52,206.32l23.96,44.11l-8.86,51.03l-0.73-0.4c-2.97-12.26-5.93-24.53-8.9-36.79v0.02l-4.66-19.26
		l-0.11-0.47L282.4,288.2l-0.41-0.68l0.41-0.06L361.52,206.32L361.52,206.32z M362.7,243.26l0.02,0.78l2.68,11.06l10.77,44.5
		l8.67-49.06l-23.08-42.41L362.7,243.26L362.7,243.26z M361.13,207.66l-76.26,78.22l77.23-41.98l-0.5-18.5L361.13,207.66
		L361.13,207.66z"/>
	<path class="st0" d="M198.43,486.46l68.01-51.51c-22.8-20.25-45.6-40.5-68.4-60.76v112.32L198.43,486.46L198.43,486.46z
		 M265.47,434.91l-66.92,50.69V375.47L265.47,434.91L265.47,434.91z"/>
	<path class="st0" d="M266.58,434.97l91.11-42.77c-7.73,12.59-16.72,24.22-26.77,34.71c-10.23,10.67-21.57,20.14-33.8,28.21
		L266.58,434.97L266.58,434.97z M358.34,391.22l-93.01,43.66l31.78,20.97l0.17-0.11c12.34-8.12,23.77-17.66,34.08-28.41
		c10.22-10.66,19.35-22.51,27.17-35.34c0.18-0.3,0.37-0.61,0.55-0.91L358.34,391.22L358.34,391.22z"/>
	<path class="st0" d="M265.77,434.68l-67.74,51.31v0.53l0.21,0c17.86-0.3,35.13-3.16,51.51-8.25c16.9-5.25,32.86-12.88,47.52-22.53
		l0.39-0.25c-10.57-6.98-21.14-13.96-31.72-20.93L265.77,434.68L265.77,434.68z M199.17,485.89l66.79-50.59l30.58,20.18
		c-14.51,9.49-30.28,17.01-46.98,22.2C233.53,482.67,216.64,485.51,199.17,485.89z"/>
	<path class="st0" d="M282.18,288.03l0.2,49.77l-82.87,34.47L282.18,288.03L282.18,288.03z M198.03,373.42
		c53.43,5.95,106.85,11.91,160.27,17.87l0.78-0.21l-0.82-1.12l-75.23-102.44l-0.61-0.29l-0.09-0.22l-0.11,0.12l-0.04-0.02l0,0.06
		l-0.19,0.2l-83.95,85.91L198.03,373.42L198.03,373.42z M282.99,337.85l-0.2-49.62L357.53,390l-74.28-51.97L282.99,337.85
		L282.99,337.85z M199.45,372.96l83.2-34.61l74.32,52.17L199.45,372.96L199.45,372.96z"/>
	<path class="st0" d="M282.89,287.66l93.73,13.8l-0.45-1.86l-0.21-0.85l-0.22-0.9l-0.22-0.9l-0.22-0.9l-0.22-0.9
		c-4.16-17.17-8.32-34.34-12.46-51.51c-6.71,3.62-13.41,7.24-20.11,10.86c-6.7,3.62-13.41,7.25-20.11,10.87
		c-6.7,3.62-13.4,7.25-20.11,10.88l-18.57,10.29v0.69l78.49-42.68l13.59,56.18l-92.26-13.58v0.07h-0.66L282.89,287.66L282.89,287.66
		z"/>
	<path class="st0" d="M198.15,21.38l29.75,9.11l-29.87-19.24v10.1C198.03,21.34,198.15,21.38,198.15,21.38z M223.87,28.61
		l-25.32-7.75V12.3L223.87,28.61L223.87,28.61z"/>
	<path class="st0" d="M251.61,68.41l35.79,15.67l-86.72-6.75L251.61,68.41L251.61,68.41z M279.04,138.25l-80.02-60.44l91.01,7.07
		L251.9,49.87l-53.87,27.34v35.55c27.18,8.76,54.06,17.39,81.23,26.15v-0.43h0.05L279.04,138.25L279.04,138.25z M198.55,78.22
		l78.68,59.42l-78.68-25.37C198.55,112.28,198.55,78.22,198.55,78.22z M251.35,67.84c-17.05,2.97-34.09,5.97-51.14,8.95l51.33-26.05
		L251.35,67.84L251.35,67.84z M251.96,67.89l0-0.11l0.19-16.85l35.47,32.58L251.96,67.89L251.96,67.89z"/>
	<path class="st0" d="M313.83,129.24l16.74,13.47l-49.88-4.37c9.39-2.57,18.78-5.17,28.17-7.75l4.77-1.31L313.83,129.24
		L313.83,129.24z M267.8,178.75l-67.93,27.01l78.71-66.63l1.19,34.86C275.77,175.58,271.79,177.16,267.8,178.75L267.8,178.75z
		 M280.17,168.12c-0.32-9.65-0.63-19.28-0.96-28.93l78.12,65.47l-0.79-0.31l-1.23-0.49l-1.23-0.49l-1.23-0.49l-1.23-0.49l-1.23-0.49
		l-1.23-0.49l-1.23-0.49l-1.23-0.49l-65.37-26.05l-0.94-0.37l-0.01-0.16l-0.12-3.43l-0.02-0.57l-0.02-0.57l-0.02-0.57L280.17,168.12
		L280.17,168.12z M278.36,138.56c-26.77,22.65-53.56,45.29-80.33,67.95v0.64l0.27-0.11l160.66-1.09l0,0l0.05,0l0.78-0.01l-0.7-0.61
		c-26.03-22.66-52.89-44.3-79.35-66.46l51.47,4.51l1.06,0.08l0,0l-21.83-31.34c-10.53,8.65-21.06,17.35-31.59,26.01l-0.33-0.27
		l0.01,0.4l-0.18,0.05v0.23L278.36,138.56L278.36,138.56z M357.42,205.35l-157.56,1.07l66.97-26.63l13.24-5.26l0.1,0.04
		L357.42,205.35L357.42,205.35z M310.06,113.23l3.48,15.46c-11.13,3.03-22.26,6.09-33.39,9.13L310.06,113.23L310.06,113.23z
		 M330.07,141.52l-15.9-12.79l-2.24-9.97l-1.05-4.65L330.07,141.52L330.07,141.52z"/>
	<path class="st0" d="M198.12,249.73l84.89,37.94c-0.26-0.24,0.48,0.14,0.22-0.11c-28.4-26.97-56.79-53.9-85.19-80.87v42.99
		L198.12,249.73L198.12,249.73z M280.98,286.28l-82.43-37.02v-41.28L280.98,286.28L280.98,286.28z"/>
</g>
<g id="_2867855807152">
	<g>
		<path class="st1" d="M487.39,375.74h2.34v-12.51l13.51-19h-2.79l-11.84,16.93l-11.79-16.93h-2.92l13.5,19.05L487.39,375.74
			L487.39,375.74z M554.98,376.28c9.55,0,15.89-7.7,15.89-16.3c0.05-0.05,0.05-0.05,0-0.09c0-8.6-6.26-16.21-15.8-16.21
			c-9.55,0-15.89,7.7-15.89,16.3v0.09C539.19,368.67,545.44,376.28,554.98,376.28z M555.07,374.16c-7.79,0-13.46-6.39-13.46-14.18
			v-0.09c0-7.79,5.58-14.09,13.37-14.09c7.79,0,13.46,6.39,13.46,14.18v0.09C568.45,367.85,562.86,374.16,555.07,374.16
			L555.07,374.16z M625.19,376.23c7.65,0,12.92-4.82,12.92-13.86v-18.14h-2.34v18.41c0,7.61-4.1,11.48-10.49,11.48
			c-6.66,0-10.67-4.28-10.67-11.7v-18.19h-2.34v18.41C612.27,371.47,617.62,376.24,625.19,376.23L625.19,376.23z M680.81,375.74
			h2.34v-13.05h10.31l10.04,13.05h2.97l-10.4-13.46c5.31-0.72,9.23-3.74,9.23-9.05c0-5.22-4.28-9.01-11.25-9.01h-13.23
			L680.81,375.74L680.81,375.74z M683.15,360.57v-14.18h10.76c5.72,0,9.05,2.65,9.05,6.89v0.09c0,4.59-3.96,7.2-9.19,7.2
			L683.15,360.57L683.15,360.57z M783.02,375.74h2.34v-29.35h10.98v-2.16h-24.31v2.16h10.99L783.02,375.74L783.02,375.74z
			 M830.62,375.74h2.43l4.01-8.83h18.59l4.01,8.83h2.57L847.55,344h-2.25L830.62,375.74L830.62,375.74z M838.05,364.8l8.33-18.23
			l8.28,18.23H838.05L838.05,364.8z M912.8,376.19c6.08,0,10.45-3.51,10.45-8.6v-0.09c0-4.59-3.06-7.2-10.35-8.69
			c-7.47-1.53-9.19-3.55-9.19-6.89v-0.09c0-3.28,3.06-5.94,7.7-5.94c3.46,0,6.44,0.99,9.41,3.55l1.49-1.85
			c-3.19-2.56-6.21-3.83-10.81-3.83c-5.85,0-10.13,3.6-10.13,8.29v0.09c0,4.77,3.06,7.34,10.63,8.87c7.16,1.44,8.91,3.38,8.91,6.71
			v0.09c0,3.6-3.24,6.26-7.97,6.26c-4.64,0-7.84-1.48-11.3-4.68l-1.53,1.75C903.89,374.52,907.77,376.19,912.8,376.19L912.8,376.19z
			 M972.93,375.74h2.34v-29.35h10.98v-2.16h-24.31v2.16h10.99L972.93,375.74L972.93,375.74z M1037.55,375.74h2.34v-12.51l13.51-19
			h-2.79l-11.84,16.93l-11.79-16.93h-2.92l13.5,19.05L1037.55,375.74L1037.55,375.74z M1093.43,375.74h2.25v-28l22.19,28h1.75
			v-31.51h-2.25v27.42l-21.75-27.42h-2.2L1093.43,375.74L1093.43,375.74z M1160.22,375.74h2.43l4.01-8.83h18.59l4.01,8.83h2.57
			L1177.15,344h-2.25L1160.22,375.74L1160.22,375.74z M1167.64,364.8l8.33-18.23l8.28,18.23H1167.64L1167.64,364.8z M1237.08,375.74
			h2.34v-29.35h10.98v-2.16h-24.31v2.16h10.99L1237.08,375.74L1237.08,375.74z M1291.75,375.74h2.34v-31.51h-2.34V375.74z
			 M1353.49,376.28c9.55,0,15.89-7.7,15.89-16.3c0.05-0.05,0.05-0.05,0-0.09c0-8.6-6.26-16.21-15.8-16.21
			c-9.55,0-15.89,7.7-15.89,16.3v0.09C1337.69,368.67,1343.95,376.28,1353.49,376.28z M1353.58,374.17
			c-7.79,0-13.46-6.39-13.46-14.18v-0.09c0-7.79,5.58-14.09,13.37-14.09s13.46,6.39,13.46,14.18v0.09
			C1366.95,367.86,1361.37,374.16,1353.58,374.17L1353.58,374.17z M1411.27,375.74h2.25v-28l22.19,28h1.75v-31.51h-2.25v27.42
			l-21.75-27.42h-2.2L1411.27,375.74L1411.27,375.74z"/>
	</g>
	<g>
		<path class="st2" d="M477.94,280.61h16.59v-66.15h84.84v66.15h16.59V133.6h-16.59v65.31h-84.84V133.6h-16.59V280.61z
			 M1212.77,282.71c29.19,0,50.19-16.38,50.19-41.58v-0.42c0-22.47-15.12-34.65-47.88-41.58c-32.55-6.72-39.9-14.7-39.9-28.56v-0.42
			c0-13.44,11.97-23.73,31.29-23.73c15.12,0,28.77,4.83,42.42,15.96l9.67-12.81c-15.12-11.97-30.03-18.06-51.66-18.06
			c-27.93,0-48.3,17.22-48.3,40.11v0.42c0,24.15,15.54,35.07,49.35,42.42c30.87,6.72,38.22,14.28,38.22,27.93v0.42
			c0,14.49-12.81,24.99-32.77,24.99c-20.37,0-35.07-6.72-50.4-20.79l-10.29,12.18C1170.35,275.14,1189.25,282.7,1212.77,282.71
			L1212.77,282.71z M645.54,280.61h90.05v-12.69h-76.13v-43.18h67.32v-12.69h-67.32v-42.12h75.24v-12.69h-89.17V280.61
			L645.54,280.61z M773.12,280.61h83.35v-12.86h-69.43V157.26h-13.92V280.61z M891.7,280.61h83.36v-12.86h-69.43V157.26H891.7
			V280.61z M999.72,280.61H1014l14.63-32.6h67.14l14.44,32.6h14.98l-56.22-124.24h-13.04L999.72,280.61L999.72,280.61z
			 M1034.08,235.5l28.19-62.91l28.02,62.91H1034.08z"/>
	</g>
</g>
</svg>
