<?xml version="1.0" standalone="no"?>
<!DOCTYPE svg PUBLIC "-//W3C//DTD SVG 20010904//EN"
 "http://www.w3.org/TR/2001/REC-SVG-20010904/DTD/svg10.dtd">
<svg version="1.0" xmlns="http://www.w3.org/2000/svg"
 width="512.000000pt" height="512.000000pt" viewBox="0 0 512.000000 512.000000"
 preserveAspectRatio="xMidYMid meet">

<g transform="translate(0.000000,512.000000) scale(0.100000,-0.100000)"
fill="#000000" stroke="none">
<path d="M2360 3703 c-170 -17 -396 -72 -553 -134 -110 -44 -283 -132 -352
-179 l-43 -30 -320 -2 -320 -3 140 -152 140 -153 -50 -57 c-109 -126 -187
-278 -219 -427 -24 -107 -21 -281 6 -390 61 -251 218 -457 442 -580 132 -72
268 -106 429 -106 213 0 382 58 558 193 30 23 56 36 61 31 68 -76 277 -299
282 -299 3 0 68 68 144 152 l138 151 71 -54 c87 -67 205 -126 311 -156 68 -20
102 -23 235 -23 168 1 216 10 349 65 262 107 467 357 526 641 24 112 20 288
-9 401 -37 148 -110 281 -213 389 l-53 56 144 159 145 159 -324 3 -324 2 -93
57 c-248 151 -526 246 -828 283 -78 9 -339 11 -420 3z m485 -308 c130 -21 366
-94 365 -113 -1 -4 -40 -26 -88 -49 -284 -135 -492 -411 -547 -726 l-12 -72
-7 50 c-46 325 -245 589 -565 747 l-94 46 39 17 c259 112 599 149 909 100z
m-1030 -430 c140 -37 291 -148 363 -268 146 -242 111 -537 -88 -738 -119 -121
-258 -179 -431 -179 -100 0 -152 12 -258 61 -67 31 -98 53 -160 116 -88 89
-132 166 -161 279 -66 258 51 532 287 671 24 14 76 36 116 49 88 28 240 32
332 9z m1789 -5 c112 -28 189 -73 277 -160 87 -87 140 -182 164 -295 30 -143
15 -255 -52 -394 -143 -297 -499 -421 -795 -277 -338 164 -448 575 -237 887
137 203 400 301 643 239z"/>
<path d="M1589 2687 c-146 -41 -239 -160 -239 -306 0 -270 320 -414 520 -234
78 70 104 129 104 233 1 70 -4 94 -24 135 -65 133 -226 210 -361 172z"/>
<path d="M3379 2687 c-25 -7 -66 -25 -91 -40 -169 -99 -199 -347 -59 -487 53
-52 98 -76 177 -93 100 -21 234 32 299 118 89 116 85 284 -10 400 -69 85 -213
131 -316 102z"/>
</g>
</svg>
